STARTFONT 2.1
COMMENT
COMMENT Converted from OpenType font "chikita.ttf" by "otf2bdf 3.0".
COMMENT
FONT -FreeType-Chikita-Medium-R-Normal--6-40-100-100-P-35-ISO10646-1
SIZE 4 100 100
FONTBOUNDINGBOX 7 8 0 -2
STARTPROPERTIES 19
FOUNDRY "FreeType"
FAMILY_NAME "Chikita"
WEIGHT_NAME "Medium"
SLANT "R"
SETWIDTH_NAME "Normal"
ADD_STYLE_NAME ""
PIXEL_SIZE 6
POINT_SIZE 40
RESOLUTION_X 100
RESOLUTION_Y 100
SPACING "P"
AVERAGE_WIDTH 35
CHARSET_REGISTRY "ISO10646"
CHARSET_ENCODING "1"
FONT_ASCENT 6
FONT_DESCENT 1
COPYRIGHT "Copyright southernmedia 2008  Chikita is based on pixelspace 5x5 by David Chiu (http://fontstruct.com/fontstructors/skyleth)"
_OTF_FONTFILE "chikita.ttf"
_OTF_PSNAME "Chikita"
ENDPROPERTIES
CHARS 260
STARTCHAR 0020
ENCODING 32
SWIDTH 180 0
DWIDTH 1 0
BBX 0 0 0 0
BITMAP
ENDCHAR
STARTCHAR 0021
ENCODING 33
SWIDTH 360 0
DWIDTH 2 0
BBX 1 5 0 -1
BITMAP
80
80
80
80
80
ENDCHAR
STARTCHAR 0022
ENCODING 34
SWIDTH 540 0
DWIDTH 3 0
BBX 2 2 0 3
BITMAP
C0
C0
ENDCHAR
STARTCHAR 0023
ENCODING 35
SWIDTH 720 0
DWIDTH 4 0
BBX 3 4 0 0
BITMAP
A0
E0
E0
A0
ENDCHAR
STARTCHAR 0024
ENCODING 36
SWIDTH 720 0
DWIDTH 4 0
BBX 3 6 0 -1
BITMAP
40
60
C0
60
E0
40
ENDCHAR
STARTCHAR 0025
ENCODING 37
SWIDTH 720 0
DWIDTH 4 0
BBX 3 4 0 0
BITMAP
A0
80
E0
20
ENDCHAR
STARTCHAR 0026
ENCODING 38
SWIDTH 720 0
DWIDTH 4 0
BBX 4 3 0 1
BITMAP
60
F0
50
ENDCHAR
STARTCHAR 0027
ENCODING 39
SWIDTH 360 0
DWIDTH 2 0
BBX 1 2 0 3
BITMAP
80
80
ENDCHAR
STARTCHAR 0028
ENCODING 40
SWIDTH 540 0
DWIDTH 3 0
BBX 2 4 0 0
BITMAP
40
80
80
40
ENDCHAR
STARTCHAR 0029
ENCODING 41
SWIDTH 540 0
DWIDTH 3 0
BBX 2 4 0 0
BITMAP
80
40
40
80
ENDCHAR
STARTCHAR 002A
ENCODING 42
SWIDTH 540 0
DWIDTH 3 0
BBX 2 2 1 1
BITMAP
40
C0
ENDCHAR
STARTCHAR 002B
ENCODING 43
SWIDTH 720 0
DWIDTH 4 0
BBX 3 4 0 0
BITMAP
40
40
E0
40
ENDCHAR
STARTCHAR 002C
ENCODING 44
SWIDTH 360 0
DWIDTH 2 0
BBX 1 1 0 0
BITMAP
80
ENDCHAR
STARTCHAR 002D
ENCODING 45
SWIDTH 720 0
DWIDTH 4 0
BBX 3 1 0 1
BITMAP
E0
ENDCHAR
STARTCHAR 002E
ENCODING 46
SWIDTH 180 0
DWIDTH 1 0
BBX 1 1 0 0
BITMAP
80
ENDCHAR
STARTCHAR 002F
ENCODING 47
SWIDTH 720 0
DWIDTH 4 0
BBX 2 4 1 0
BITMAP
40
40
80
80
ENDCHAR
STARTCHAR 0030
ENCODING 48
SWIDTH 720 0
DWIDTH 4 0
BBX 3 4 0 0
BITMAP
40
A0
A0
40
ENDCHAR
STARTCHAR 0031
ENCODING 49
SWIDTH 540 0
DWIDTH 3 0
BBX 2 4 0 0
BITMAP
40
C0
40
40
ENDCHAR
STARTCHAR 0032
ENCODING 50
SWIDTH 720 0
DWIDTH 4 0
BBX 3 4 0 0
BITMAP
60
80
60
E0
ENDCHAR
STARTCHAR 0033
ENCODING 51
SWIDTH 720 0
DWIDTH 4 0
BBX 3 4 0 0
BITMAP
E0
00
60
E0
ENDCHAR
STARTCHAR 0034
ENCODING 52
SWIDTH 720 0
DWIDTH 4 0
BBX 4 4 0 0
BITMAP
60
A0
F0
20
ENDCHAR
STARTCHAR 0035
ENCODING 53
SWIDTH 720 0
DWIDTH 4 0
BBX 3 4 0 0
BITMAP
E0
80
E0
E0
ENDCHAR
STARTCHAR 0036
ENCODING 54
SWIDTH 720 0
DWIDTH 4 0
BBX 3 4 0 0
BITMAP
60
80
C0
60
ENDCHAR
STARTCHAR 0037
ENCODING 55
SWIDTH 720 0
DWIDTH 4 0
BBX 3 4 0 0
BITMAP
E0
20
40
80
ENDCHAR
STARTCHAR 0038
ENCODING 56
SWIDTH 720 0
DWIDTH 4 0
BBX 3 4 0 0
BITMAP
60
80
E0
60
ENDCHAR
STARTCHAR 0039
ENCODING 57
SWIDTH 720 0
DWIDTH 4 0
BBX 3 4 0 0
BITMAP
C0
20
E0
C0
ENDCHAR
STARTCHAR 003A
ENCODING 58
SWIDTH 180 0
DWIDTH 1 0
BBX 1 2 0 1
BITMAP
80
80
ENDCHAR
STARTCHAR 003B
ENCODING 59
SWIDTH 360 0
DWIDTH 2 0
BBX 1 3 0 0
BITMAP
80
80
80
ENDCHAR
STARTCHAR 003C
ENCODING 60
SWIDTH 720 0
DWIDTH 4 0
BBX 3 4 0 0
BITMAP
20
40
C0
20
ENDCHAR
STARTCHAR 003D
ENCODING 61
SWIDTH 720 0
DWIDTH 4 0
BBX 3 2 0 1
BITMAP
E0
E0
ENDCHAR
STARTCHAR 003E
ENCODING 62
SWIDTH 720 0
DWIDTH 4 0
BBX 3 4 0 0
BITMAP
80
60
60
80
ENDCHAR
STARTCHAR 003F
ENCODING 63
SWIDTH 720 0
DWIDTH 4 0
BBX 3 6 0 -1
BITMAP
E0
00
20
40
40
40
ENDCHAR
STARTCHAR 0040
ENCODING 64
SWIDTH 1080 0
DWIDTH 6 0
BBX 5 6 0 -1
BITMAP
70
88
A8
B8
80
70
ENDCHAR
STARTCHAR 0041
ENCODING 65
SWIDTH 900 0
DWIDTH 5 0
BBX 4 4 0 0
BITMAP
60
90
F0
90
ENDCHAR
STARTCHAR 0042
ENCODING 66
SWIDTH 720 0
DWIDTH 4 0
BBX 3 4 0 0
BITMAP
E0
80
E0
E0
ENDCHAR
STARTCHAR 0043
ENCODING 67
SWIDTH 720 0
DWIDTH 4 0
BBX 4 4 0 0
BITMAP
60
90
90
60
ENDCHAR
STARTCHAR 0044
ENCODING 68
SWIDTH 900 0
DWIDTH 5 0
BBX 4 4 0 0
BITMAP
E0
90
90
E0
ENDCHAR
STARTCHAR 0045
ENCODING 69
SWIDTH 720 0
DWIDTH 4 0
BBX 3 4 0 0
BITMAP
E0
80
E0
E0
ENDCHAR
STARTCHAR 0046
ENCODING 70
SWIDTH 720 0
DWIDTH 4 0
BBX 4 4 0 0
BITMAP
F0
80
E0
80
ENDCHAR
STARTCHAR 0047
ENCODING 71
SWIDTH 720 0
DWIDTH 4 0
BBX 4 4 0 0
BITMAP
60
80
B0
60
ENDCHAR
STARTCHAR 0048
ENCODING 72
SWIDTH 900 0
DWIDTH 5 0
BBX 4 4 0 0
BITMAP
90
90
F0
90
ENDCHAR
STARTCHAR 0049
ENCODING 73
SWIDTH 540 0
DWIDTH 3 0
BBX 3 4 0 0
BITMAP
E0
40
40
E0
ENDCHAR
STARTCHAR 004A
ENCODING 74
SWIDTH 900 0
DWIDTH 5 0
BBX 4 4 0 0
BITMAP
10
10
90
60
ENDCHAR
STARTCHAR 004B
ENCODING 75
SWIDTH 720 0
DWIDTH 4 0
BBX 4 4 0 0
BITMAP
90
A0
E0
90
ENDCHAR
STARTCHAR 004C
ENCODING 76
SWIDTH 720 0
DWIDTH 4 0
BBX 4 4 0 0
BITMAP
80
80
80
F0
ENDCHAR
STARTCHAR 004D
ENCODING 77
SWIDTH 900 0
DWIDTH 5 0
BBX 4 4 0 0
BITMAP
90
F0
90
90
ENDCHAR
STARTCHAR 004E
ENCODING 78
SWIDTH 900 0
DWIDTH 5 0
BBX 4 4 0 0
BITMAP
90
D0
B0
90
ENDCHAR
STARTCHAR 004F
ENCODING 79
SWIDTH 900 0
DWIDTH 5 0
BBX 4 4 0 0
BITMAP
60
90
90
60
ENDCHAR
STARTCHAR 0050
ENCODING 80
SWIDTH 900 0
DWIDTH 5 0
BBX 4 4 0 0
BITMAP
E0
90
F0
80
ENDCHAR
STARTCHAR 0051
ENCODING 81
SWIDTH 900 0
DWIDTH 5 0
BBX 4 4 0 0
BITMAP
60
90
B0
70
ENDCHAR
STARTCHAR 0052
ENCODING 82
SWIDTH 900 0
DWIDTH 5 0
BBX 4 4 0 0
BITMAP
E0
90
F0
90
ENDCHAR
STARTCHAR 0053
ENCODING 83
SWIDTH 720 0
DWIDTH 4 0
BBX 3 4 0 0
BITMAP
60
80
60
E0
ENDCHAR
STARTCHAR 0054
ENCODING 84
SWIDTH 720 0
DWIDTH 4 0
BBX 3 4 0 0
BITMAP
E0
40
40
40
ENDCHAR
STARTCHAR 0055
ENCODING 85
SWIDTH 900 0
DWIDTH 5 0
BBX 4 4 0 0
BITMAP
90
90
90
60
ENDCHAR
STARTCHAR 0056
ENCODING 86
SWIDTH 900 0
DWIDTH 5 0
BBX 4 3 0 0
BITMAP
90
90
60
ENDCHAR
STARTCHAR 0057
ENCODING 87
SWIDTH 720 0
DWIDTH 4 0
BBX 3 3 0 0
BITMAP
A0
E0
E0
ENDCHAR
STARTCHAR 0058
ENCODING 88
SWIDTH 720 0
DWIDTH 4 0
BBX 3 4 0 0
BITMAP
80
20
60
80
ENDCHAR
STARTCHAR 0059
ENCODING 89
SWIDTH 720 0
DWIDTH 4 0
BBX 3 4 0 0
BITMAP
A0
A0
40
40
ENDCHAR
STARTCHAR 005A
ENCODING 90
SWIDTH 720 0
DWIDTH 4 0
BBX 3 4 0 0
BITMAP
E0
20
40
E0
ENDCHAR
STARTCHAR 005B
ENCODING 91
SWIDTH 360 0
DWIDTH 2 0
BBX 2 5 0 -1
BITMAP
C0
80
80
80
C0
ENDCHAR
STARTCHAR 005C
ENCODING 92
SWIDTH 540 0
DWIDTH 3 0
BBX 2 4 0 0
BITMAP
80
80
40
40
ENDCHAR
STARTCHAR 005D
ENCODING 93
SWIDTH 540 0
DWIDTH 3 0
BBX 2 5 0 -1
BITMAP
C0
40
40
40
C0
ENDCHAR
STARTCHAR 005E
ENCODING 94
SWIDTH 540 0
DWIDTH 3 0
BBX 2 1 0 4
BITMAP
C0
ENDCHAR
STARTCHAR 005F
ENCODING 95
SWIDTH 720 0
DWIDTH 4 0
BBX 3 1 0 -1
BITMAP
E0
ENDCHAR
STARTCHAR 0060
ENCODING 96
SWIDTH 360 0
DWIDTH 2 0
BBX 1 1 0 3
BITMAP
80
ENDCHAR
STARTCHAR 0061
ENCODING 97
SWIDTH 720 0
DWIDTH 4 0
BBX 3 3 0 0
BITMAP
60
A0
E0
ENDCHAR
STARTCHAR 0062
ENCODING 98
SWIDTH 720 0
DWIDTH 4 0
BBX 3 4 0 0
BITMAP
80
C0
A0
C0
ENDCHAR
STARTCHAR 0063
ENCODING 99
SWIDTH 720 0
DWIDTH 4 0
BBX 3 3 0 0
BITMAP
60
80
60
ENDCHAR
STARTCHAR 0064
ENCODING 100
SWIDTH 720 0
DWIDTH 4 0
BBX 3 4 0 0
BITMAP
20
60
A0
60
ENDCHAR
STARTCHAR 0065
ENCODING 101
SWIDTH 540 0
DWIDTH 3 0
BBX 3 3 0 0
BITMAP
40
E0
60
ENDCHAR
STARTCHAR 0066
ENCODING 102
SWIDTH 720 0
DWIDTH 4 0
BBX 3 4 0 0
BITMAP
20
40
E0
40
ENDCHAR
STARTCHAR 0067
ENCODING 103
SWIDTH 720 0
DWIDTH 4 0
BBX 3 4 0 -1
BITMAP
60
A0
E0
C0
ENDCHAR
STARTCHAR 0068
ENCODING 104
SWIDTH 720 0
DWIDTH 4 0
BBX 3 4 0 0
BITMAP
80
C0
A0
A0
ENDCHAR
STARTCHAR 0069
ENCODING 105
SWIDTH 360 0
DWIDTH 2 0
BBX 1 4 0 0
BITMAP
80
00
80
80
ENDCHAR
STARTCHAR 006A
ENCODING 106
SWIDTH 540 0
DWIDTH 3 0
BBX 2 5 0 -1
BITMAP
40
40
40
40
80
ENDCHAR
STARTCHAR 006B
ENCODING 107
SWIDTH 720 0
DWIDTH 4 0
BBX 3 4 0 0
BITMAP
80
E0
C0
A0
ENDCHAR
STARTCHAR 006C
ENCODING 108
SWIDTH 360 0
DWIDTH 2 0
BBX 1 4 0 0
BITMAP
80
80
80
80
ENDCHAR
STARTCHAR 006D
ENCODING 109
SWIDTH 900 0
DWIDTH 5 0
BBX 4 3 0 0
BITMAP
C0
F0
B0
ENDCHAR
STARTCHAR 006E
ENCODING 110
SWIDTH 720 0
DWIDTH 4 0
BBX 3 3 0 0
BITMAP
C0
E0
A0
ENDCHAR
STARTCHAR 006F
ENCODING 111
SWIDTH 720 0
DWIDTH 4 0
BBX 3 3 0 0
BITMAP
40
A0
40
ENDCHAR
STARTCHAR 0070
ENCODING 112
SWIDTH 720 0
DWIDTH 4 0
BBX 3 4 0 -1
BITMAP
E0
A0
C0
80
ENDCHAR
STARTCHAR 0071
ENCODING 113
SWIDTH 720 0
DWIDTH 4 0
BBX 3 4 0 -1
BITMAP
E0
A0
60
20
ENDCHAR
STARTCHAR 0072
ENCODING 114
SWIDTH 720 0
DWIDTH 4 0
BBX 3 3 0 0
BITMAP
A0
C0
80
ENDCHAR
STARTCHAR 0073
ENCODING 115
SWIDTH 540 0
DWIDTH 3 0
BBX 3 3 0 0
BITMAP
60
E0
C0
ENDCHAR
STARTCHAR 0074
ENCODING 116
SWIDTH 720 0
DWIDTH 4 0
BBX 3 4 0 0
BITMAP
40
E0
40
20
ENDCHAR
STARTCHAR 0075
ENCODING 117
SWIDTH 720 0
DWIDTH 4 0
BBX 3 3 0 0
BITMAP
A0
A0
60
ENDCHAR
STARTCHAR 0076
ENCODING 118
SWIDTH 900 0
DWIDTH 5 0
BBX 4 2 0 0
BITMAP
90
F0
ENDCHAR
STARTCHAR 0077
ENCODING 119
SWIDTH 900 0
DWIDTH 5 0
BBX 4 3 0 0
BITMAP
90
90
60
ENDCHAR
STARTCHAR 0078
ENCODING 120
SWIDTH 540 0
DWIDTH 3 0
BBX 3 3 0 0
BITMAP
A0
40
A0
ENDCHAR
STARTCHAR 0079
ENCODING 121
SWIDTH 720 0
DWIDTH 4 0
BBX 3 4 0 -1
BITMAP
A0
A0
60
E0
ENDCHAR
STARTCHAR 007A
ENCODING 122
SWIDTH 540 0
DWIDTH 3 0
BBX 3 3 0 0
BITMAP
E0
40
E0
ENDCHAR
STARTCHAR 007B
ENCODING 123
SWIDTH 540 0
DWIDTH 3 0
BBX 2 5 0 -1
BITMAP
40
80
80
00
40
ENDCHAR
STARTCHAR 007C
ENCODING 124
SWIDTH 360 0
DWIDTH 2 0
BBX 1 5 0 -1
BITMAP
80
80
80
80
80
ENDCHAR
STARTCHAR 007D
ENCODING 125
SWIDTH 540 0
DWIDTH 3 0
BBX 2 5 0 -1
BITMAP
80
C0
40
80
80
ENDCHAR
STARTCHAR 007E
ENCODING 126
SWIDTH 720 0
DWIDTH 4 0
BBX 3 2 0 2
BITMAP
C0
20
ENDCHAR
STARTCHAR 00A1
ENCODING 161
SWIDTH 360 0
DWIDTH 2 0
BBX 1 5 0 -1
BITMAP
80
80
80
80
80
ENDCHAR
STARTCHAR 00A2
ENCODING 162
SWIDTH 540 0
DWIDTH 3 0
BBX 2 4 0 0
BITMAP
80
C0
C0
80
ENDCHAR
STARTCHAR 00A3
ENCODING 163
SWIDTH 900 0
DWIDTH 5 0
BBX 4 5 0 0
BITMAP
60
90
50
C0
F0
ENDCHAR
STARTCHAR 00A4
ENCODING 164
SWIDTH 720 0
DWIDTH 4 0
BBX 4 4 0 0
BITMAP
90
60
60
90
ENDCHAR
STARTCHAR 00A5
ENCODING 165
SWIDTH 720 0
DWIDTH 4 0
BBX 3 4 0 1
BITMAP
A0
E0
E0
40
ENDCHAR
STARTCHAR 00A6
ENCODING 166
SWIDTH 360 0
DWIDTH 2 0
BBX 1 4 0 0
BITMAP
80
80
80
80
ENDCHAR
STARTCHAR 00A7
ENCODING 167
SWIDTH 540 0
DWIDTH 3 0
BBX 3 5 0 -1
BITMAP
60
C0
A0
60
C0
ENDCHAR
STARTCHAR 00A8
ENCODING 168
SWIDTH 540 0
DWIDTH 3 0
BBX 2 1 0 4
BITMAP
C0
ENDCHAR
STARTCHAR 00A9
ENCODING 169
SWIDTH 1080 0
DWIDTH 6 0
BBX 5 6 0 -1
BITMAP
70
88
A8
A8
88
70
ENDCHAR
STARTCHAR 00AA
ENCODING 170
SWIDTH 540 0
DWIDTH 3 0
BBX 2 3 0 3
BITMAP
40
C0
40
ENDCHAR
STARTCHAR 00AB
ENCODING 171
SWIDTH 900 0
DWIDTH 5 0
BBX 4 4 0 0
BITMAP
50
00
A0
50
ENDCHAR
STARTCHAR 00AC
ENCODING 172
SWIDTH 900 0
DWIDTH 5 0
BBX 4 2 0 2
BITMAP
F0
10
ENDCHAR
STARTCHAR 00AD
ENCODING 173
SWIDTH 540 0
DWIDTH 3 0
BBX 2 1 1 1
BITMAP
C0
ENDCHAR
STARTCHAR 00AE
ENCODING 174
SWIDTH 1080 0
DWIDTH 6 0
BBX 5 6 0 -1
BITMAP
70
88
A8
A8
88
70
ENDCHAR
STARTCHAR 00AF
ENCODING 175
SWIDTH 720 0
DWIDTH 4 0
BBX 3 1 0 4
BITMAP
E0
ENDCHAR
STARTCHAR 00B0
ENCODING 176
SWIDTH 720 0
DWIDTH 4 0
BBX 3 3 0 2
BITMAP
E0
A0
40
ENDCHAR
STARTCHAR 00B1
ENCODING 177
SWIDTH 540 0
DWIDTH 3 0
BBX 2 4 1 0
BITMAP
80
C0
00
C0
ENDCHAR
STARTCHAR 00B2
ENCODING 178
SWIDTH 540 0
DWIDTH 3 0
BBX 3 4 0 1
BITMAP
40
A0
40
E0
ENDCHAR
STARTCHAR 00B3
ENCODING 179
SWIDTH 540 0
DWIDTH 3 0
BBX 3 4 0 1
BITMAP
C0
20
60
C0
ENDCHAR
STARTCHAR 00B4
ENCODING 180
SWIDTH 360 0
DWIDTH 2 0
BBX 1 1 0 5
BITMAP
80
ENDCHAR
STARTCHAR 00B5
ENCODING 181
SWIDTH 900 0
DWIDTH 5 0
BBX 4 4 0 -1
BITMAP
90
F0
90
80
ENDCHAR
STARTCHAR 00B6
ENCODING 182
SWIDTH 720 0
DWIDTH 4 0
BBX 4 5 0 -1
BITMAP
F0
E0
E0
60
60
ENDCHAR
STARTCHAR 00B7
ENCODING 183
SWIDTH 720 0
DWIDTH 4 0
BBX 2 2 1 1
BITMAP
C0
C0
ENDCHAR
STARTCHAR 00B8
ENCODING 184
SWIDTH 540 0
DWIDTH 3 0
BBX 2 2 1 -1
BITMAP
40
C0
ENDCHAR
STARTCHAR 00B9
ENCODING 185
SWIDTH 540 0
DWIDTH 3 0
BBX 2 4 0 1
BITMAP
40
C0
40
40
ENDCHAR
STARTCHAR 00BA
ENCODING 186
SWIDTH 720 0
DWIDTH 4 0
BBX 3 4 0 1
BITMAP
40
A0
A0
40
ENDCHAR
STARTCHAR 00BB
ENCODING 187
SWIDTH 900 0
DWIDTH 5 0
BBX 4 4 0 0
BITMAP
A0
00
50
A0
ENDCHAR
STARTCHAR 00BC
ENCODING 188
SWIDTH 1080 0
DWIDTH 6 0
BBX 5 6 0 -1
BITMAP
48
C0
50
68
58
98
ENDCHAR
STARTCHAR 00BD
ENCODING 189
SWIDTH 1080 0
DWIDTH 6 0
BBX 5 6 0 -2
BITMAP
C8
50
40
78
88
18
ENDCHAR
STARTCHAR 00BE
ENCODING 190
SWIDTH 1080 0
DWIDTH 6 0
BBX 5 6 0 -1
BITMAP
C8
40
10
E8
58
98
ENDCHAR
STARTCHAR 00BF
ENCODING 191
SWIDTH 720 0
DWIDTH 4 0
BBX 3 6 0 -1
BITMAP
40
00
40
E0
20
C0
ENDCHAR
STARTCHAR 00C0
ENCODING 192
SWIDTH 900 0
DWIDTH 5 0
BBX 4 6 0 0
BITMAP
40
00
60
90
F0
90
ENDCHAR
STARTCHAR 00C1
ENCODING 193
SWIDTH 900 0
DWIDTH 5 0
BBX 4 6 0 0
BITMAP
20
00
60
90
F0
90
ENDCHAR
STARTCHAR 00C2
ENCODING 194
SWIDTH 900 0
DWIDTH 5 0
BBX 4 5 0 1
BITMAP
60
60
90
F0
90
ENDCHAR
STARTCHAR 00C3
ENCODING 195
SWIDTH 900 0
DWIDTH 5 0
BBX 4 6 0 0
BITMAP
10
60
60
90
F0
90
ENDCHAR
STARTCHAR 00C4
ENCODING 196
SWIDTH 900 0
DWIDTH 5 0
BBX 4 5 0 0
BITMAP
60
60
90
F0
90
ENDCHAR
STARTCHAR 00C5
ENCODING 197
SWIDTH 900 0
DWIDTH 5 0
BBX 4 5 0 1
BITMAP
60
60
90
F0
90
ENDCHAR
STARTCHAR 00C6
ENCODING 198
SWIDTH 1260 0
DWIDTH 7 0
BBX 6 4 0 0
BITMAP
7C
50
FC
9C
ENDCHAR
STARTCHAR 00C7
ENCODING 199
SWIDTH 900 0
DWIDTH 5 0
BBX 4 5 0 -1
BITMAP
60
90
90
60
60
ENDCHAR
STARTCHAR 00C8
ENCODING 200
SWIDTH 720 0
DWIDTH 4 0
BBX 3 5 0 1
BITMAP
40
E0
80
E0
E0
ENDCHAR
STARTCHAR 00C9
ENCODING 201
SWIDTH 720 0
DWIDTH 4 0
BBX 3 6 0 0
BITMAP
20
40
E0
80
E0
E0
ENDCHAR
STARTCHAR 00CA
ENCODING 202
SWIDTH 720 0
DWIDTH 4 0
BBX 3 6 0 0
BITMAP
40
20
E0
80
E0
E0
ENDCHAR
STARTCHAR 00CB
ENCODING 203
SWIDTH 720 0
DWIDTH 4 0
BBX 3 5 0 0
BITMAP
20
E0
80
E0
E0
ENDCHAR
STARTCHAR 00CC
ENCODING 204
SWIDTH 540 0
DWIDTH 3 0
BBX 3 6 0 0
BITMAP
80
40
E0
40
40
E0
ENDCHAR
STARTCHAR 00CD
ENCODING 205
SWIDTH 540 0
DWIDTH 3 0
BBX 3 6 0 0
BITMAP
20
40
E0
40
40
E0
ENDCHAR
STARTCHAR 00CE
ENCODING 206
SWIDTH 540 0
DWIDTH 3 0
BBX 3 6 0 0
BITMAP
40
A0
E0
40
40
E0
ENDCHAR
STARTCHAR 00CF
ENCODING 207
SWIDTH 540 0
DWIDTH 3 0
BBX 3 5 0 0
BITMAP
A0
E0
40
40
E0
ENDCHAR
STARTCHAR 00D0
ENCODING 208
SWIDTH 900 0
DWIDTH 5 0
BBX 4 4 0 0
BITMAP
60
50
D0
60
ENDCHAR
STARTCHAR 00D1
ENCODING 209
SWIDTH 900 0
DWIDTH 5 0
BBX 4 6 0 0
BITMAP
10
60
90
D0
B0
90
ENDCHAR
STARTCHAR 00D2
ENCODING 210
SWIDTH 900 0
DWIDTH 5 0
BBX 4 6 0 0
BITMAP
40
00
60
90
90
60
ENDCHAR
STARTCHAR 00D3
ENCODING 211
SWIDTH 900 0
DWIDTH 5 0
BBX 4 6 0 0
BITMAP
20
00
60
90
90
60
ENDCHAR
STARTCHAR 00D4
ENCODING 212
SWIDTH 900 0
DWIDTH 5 0
BBX 4 5 0 1
BITMAP
60
60
90
90
60
ENDCHAR
STARTCHAR 00D5
ENCODING 213
SWIDTH 900 0
DWIDTH 5 0
BBX 4 6 0 0
BITMAP
40
B0
60
90
90
60
ENDCHAR
STARTCHAR 00D6
ENCODING 214
SWIDTH 900 0
DWIDTH 5 0
BBX 4 5 0 0
BITMAP
60
60
90
90
60
ENDCHAR
STARTCHAR 00D7
ENCODING 215
SWIDTH 540 0
DWIDTH 3 0
BBX 2 2 0 1
BITMAP
C0
C0
ENDCHAR
STARTCHAR 00D8
ENCODING 216
SWIDTH 900 0
DWIDTH 5 0
BBX 4 4 0 0
BITMAP
70
B0
D0
E0
ENDCHAR
STARTCHAR 00D9
ENCODING 217
SWIDTH 900 0
DWIDTH 5 0
BBX 4 6 0 0
BITMAP
40
00
90
90
90
60
ENDCHAR
STARTCHAR 00DA
ENCODING 218
SWIDTH 900 0
DWIDTH 5 0
BBX 4 6 0 0
BITMAP
20
00
90
90
90
60
ENDCHAR
STARTCHAR 00DB
ENCODING 219
SWIDTH 900 0
DWIDTH 5 0
BBX 4 5 0 1
BITMAP
60
90
90
90
60
ENDCHAR
STARTCHAR 00DC
ENCODING 220
SWIDTH 900 0
DWIDTH 5 0
BBX 4 5 0 0
BITMAP
60
90
90
90
60
ENDCHAR
STARTCHAR 00DD
ENCODING 221
SWIDTH 720 0
DWIDTH 4 0
BBX 3 5 0 1
BITMAP
40
A0
A0
40
40
ENDCHAR
STARTCHAR 00DE
ENCODING 222
SWIDTH 720 0
DWIDTH 4 0
BBX 3 4 0 0
BITMAP
80
E0
E0
80
ENDCHAR
STARTCHAR 00DF
ENCODING 223
SWIDTH 720 0
DWIDTH 4 0
BBX 3 4 0 0
BITMAP
40
A0
A0
80
ENDCHAR
STARTCHAR 00E0
ENCODING 224
SWIDTH 720 0
DWIDTH 4 0
BBX 3 5 0 0
BITMAP
40
00
60
A0
E0
ENDCHAR
STARTCHAR 00E1
ENCODING 225
SWIDTH 720 0
DWIDTH 4 0
BBX 3 5 0 0
BITMAP
40
00
60
A0
E0
ENDCHAR
STARTCHAR 00E2
ENCODING 226
SWIDTH 720 0
DWIDTH 4 0
BBX 3 5 0 0
BITMAP
60
00
60
A0
E0
ENDCHAR
STARTCHAR 00E3
ENCODING 227
SWIDTH 720 0
DWIDTH 4 0
BBX 3 5 0 0
BITMAP
E0
00
60
A0
E0
ENDCHAR
STARTCHAR 00E4
ENCODING 228
SWIDTH 720 0
DWIDTH 4 0
BBX 3 5 0 0
BITMAP
60
00
60
A0
E0
ENDCHAR
STARTCHAR 00E5
ENCODING 229
SWIDTH 720 0
DWIDTH 4 0
BBX 3 5 0 0
BITMAP
60
40
60
A0
E0
ENDCHAR
STARTCHAR 00E6
ENCODING 230
SWIDTH 1080 0
DWIDTH 6 0
BBX 5 4 0 0
BITMAP
D0
28
F8
D8
ENDCHAR
STARTCHAR 00E7
ENCODING 231
SWIDTH 720 0
DWIDTH 4 0
BBX 3 4 0 -1
BITMAP
E0
80
60
40
ENDCHAR
STARTCHAR 00E8
ENCODING 232
SWIDTH 540 0
DWIDTH 3 0
BBX 3 5 0 0
BITMAP
40
00
40
E0
60
ENDCHAR
STARTCHAR 00E9
ENCODING 233
SWIDTH 540 0
DWIDTH 3 0
BBX 3 5 0 0
BITMAP
40
00
40
E0
60
ENDCHAR
STARTCHAR 00EA
ENCODING 234
SWIDTH 540 0
DWIDTH 3 0
BBX 3 5 0 0
BITMAP
60
00
40
E0
60
ENDCHAR
STARTCHAR 00EB
ENCODING 235
SWIDTH 540 0
DWIDTH 3 0
BBX 3 5 0 0
BITMAP
20
00
40
E0
60
ENDCHAR
STARTCHAR 00EC
ENCODING 236
SWIDTH 540 0
DWIDTH 3 0
BBX 2 5 0 0
BITMAP
C0
00
40
40
40
ENDCHAR
STARTCHAR 00ED
ENCODING 237
SWIDTH 360 0
DWIDTH 2 0
BBX 2 5 0 0
BITMAP
C0
00
80
80
80
ENDCHAR
STARTCHAR 00EE
ENCODING 238
SWIDTH 540 0
DWIDTH 3 0
BBX 3 5 0 0
BITMAP
E0
00
40
40
40
ENDCHAR
STARTCHAR 00EF
ENCODING 239
SWIDTH 540 0
DWIDTH 3 0
BBX 3 5 0 0
BITMAP
A0
00
40
40
40
ENDCHAR
STARTCHAR 00F0
ENCODING 240
SWIDTH 720 0
DWIDTH 4 0
BBX 3 5 0 0
BITMAP
40
40
60
A0
40
ENDCHAR
STARTCHAR 00F1
ENCODING 241
SWIDTH 720 0
DWIDTH 4 0
BBX 3 5 0 0
BITMAP
E0
00
C0
E0
A0
ENDCHAR
STARTCHAR 00F2
ENCODING 242
SWIDTH 720 0
DWIDTH 4 0
BBX 3 5 0 0
BITMAP
40
00
40
A0
40
ENDCHAR
STARTCHAR 00F3
ENCODING 243
SWIDTH 720 0
DWIDTH 4 0
BBX 3 5 0 0
BITMAP
40
00
40
A0
40
ENDCHAR
STARTCHAR 00F4
ENCODING 244
SWIDTH 720 0
DWIDTH 4 0
BBX 3 5 0 0
BITMAP
E0
00
40
A0
40
ENDCHAR
STARTCHAR 00F5
ENCODING 245
SWIDTH 720 0
DWIDTH 4 0
BBX 3 5 0 0
BITMAP
E0
00
40
A0
40
ENDCHAR
STARTCHAR 00F6
ENCODING 246
SWIDTH 720 0
DWIDTH 4 0
BBX 3 5 0 0
BITMAP
60
00
40
A0
40
ENDCHAR
STARTCHAR 00F7
ENCODING 247
SWIDTH 720 0
DWIDTH 4 0
BBX 3 4 0 0
BITMAP
40
00
E0
40
ENDCHAR
STARTCHAR 00F8
ENCODING 248
SWIDTH 720 0
DWIDTH 4 0
BBX 3 3 0 0
BITMAP
60
E0
C0
ENDCHAR
STARTCHAR 00F9
ENCODING 249
SWIDTH 720 0
DWIDTH 4 0
BBX 3 5 0 0
BITMAP
40
00
A0
A0
60
ENDCHAR
STARTCHAR 00FA
ENCODING 250
SWIDTH 720 0
DWIDTH 4 0
BBX 3 5 0 0
BITMAP
40
00
A0
A0
60
ENDCHAR
STARTCHAR 00FB
ENCODING 251
SWIDTH 720 0
DWIDTH 4 0
BBX 3 5 0 0
BITMAP
60
00
A0
A0
60
ENDCHAR
STARTCHAR 00FC
ENCODING 252
SWIDTH 720 0
DWIDTH 4 0
BBX 3 5 0 0
BITMAP
60
00
A0
A0
60
ENDCHAR
STARTCHAR 00FD
ENCODING 253
SWIDTH 720 0
DWIDTH 4 0
BBX 3 6 0 -1
BITMAP
40
40
A0
A0
60
C0
ENDCHAR
STARTCHAR 00FE
ENCODING 254
SWIDTH 720 0
DWIDTH 4 0
BBX 3 4 0 -1
BITMAP
C0
A0
E0
80
ENDCHAR
STARTCHAR 00FF
ENCODING 255
SWIDTH 720 0
DWIDTH 4 0
BBX 3 5 0 -1
BITMAP
60
A0
A0
60
C0
ENDCHAR
STARTCHAR 0152
ENCODING 338
SWIDTH 1080 0
DWIDTH 6 0
BBX 6 4 0 0
BITMAP
5C
B0
BC
5C
ENDCHAR
STARTCHAR 0153
ENCODING 339
SWIDTH 1080 0
DWIDTH 6 0
BBX 5 3 0 0
BITMAP
50
B8
58
ENDCHAR
STARTCHAR 0178
ENCODING 376
SWIDTH 720 0
DWIDTH 4 0
BBX 3 4 0 1
BITMAP
A0
A0
40
40
ENDCHAR
STARTCHAR 018F
ENCODING 399
SWIDTH 720 0
DWIDTH 4 0
BBX 4 4 0 0
BITMAP
E0
10
F0
60
ENDCHAR
STARTCHAR 0192
ENCODING 402
SWIDTH 720 0
DWIDTH 4 0
BBX 3 5 0 -1
BITMAP
20
E0
40
40
C0
ENDCHAR
STARTCHAR 0391
ENCODING 913
SWIDTH 900 0
DWIDTH 5 0
BBX 4 4 0 0
BITMAP
60
90
F0
90
ENDCHAR
STARTCHAR 0392
ENCODING 914
SWIDTH 720 0
DWIDTH 4 0
BBX 3 4 0 0
BITMAP
E0
80
E0
E0
ENDCHAR
STARTCHAR 0393
ENCODING 915
SWIDTH 720 0
DWIDTH 4 0
BBX 3 4 0 0
BITMAP
E0
80
80
80
ENDCHAR
STARTCHAR 0394
ENCODING 916
SWIDTH 720 0
DWIDTH 4 0
BBX 3 4 0 0
BITMAP
40
A0
A0
E0
ENDCHAR
STARTCHAR 0395
ENCODING 917
SWIDTH 720 0
DWIDTH 4 0
BBX 3 4 0 0
BITMAP
E0
80
E0
E0
ENDCHAR
STARTCHAR 0396
ENCODING 918
SWIDTH 720 0
DWIDTH 4 0
BBX 3 4 0 0
BITMAP
E0
20
40
E0
ENDCHAR
STARTCHAR 0397
ENCODING 919
SWIDTH 900 0
DWIDTH 5 0
BBX 4 4 0 0
BITMAP
90
90
F0
90
ENDCHAR
STARTCHAR 0398
ENCODING 920
SWIDTH 900 0
DWIDTH 5 0
BBX 4 4 0 0
BITMAP
60
90
F0
60
ENDCHAR
STARTCHAR 0399
ENCODING 921
SWIDTH 360 0
DWIDTH 2 0
BBX 1 4 0 0
BITMAP
80
80
80
80
ENDCHAR
STARTCHAR 039A
ENCODING 922
SWIDTH 720 0
DWIDTH 4 0
BBX 4 4 0 0
BITMAP
90
A0
E0
90
ENDCHAR
STARTCHAR 039B
ENCODING 923
SWIDTH 900 0
DWIDTH 5 0
BBX 4 3 0 1
BITMAP
60
F0
90
ENDCHAR
STARTCHAR 039C
ENCODING 924
SWIDTH 900 0
DWIDTH 5 0
BBX 4 4 0 0
BITMAP
90
F0
90
90
ENDCHAR
STARTCHAR 039D
ENCODING 925
SWIDTH 900 0
DWIDTH 5 0
BBX 4 4 0 0
BITMAP
90
D0
B0
90
ENDCHAR
STARTCHAR 039E
ENCODING 926
SWIDTH 720 0
DWIDTH 4 0
BBX 3 4 0 0
BITMAP
E0
00
60
E0
ENDCHAR
STARTCHAR 039F
ENCODING 927
SWIDTH 900 0
DWIDTH 5 0
BBX 4 4 0 0
BITMAP
60
90
90
60
ENDCHAR
STARTCHAR 03A0
ENCODING 928
SWIDTH 900 0
DWIDTH 5 0
BBX 4 4 0 0
BITMAP
F0
90
90
90
ENDCHAR
STARTCHAR 03A1
ENCODING 929
SWIDTH 720 0
DWIDTH 4 0
BBX 4 4 0 0
BITMAP
E0
90
E0
80
ENDCHAR
STARTCHAR 03A3
ENCODING 931
SWIDTH 720 0
DWIDTH 4 0
BBX 3 4 0 0
BITMAP
E0
00
40
E0
ENDCHAR
STARTCHAR 03A4
ENCODING 932
SWIDTH 720 0
DWIDTH 4 0
BBX 3 4 0 0
BITMAP
E0
40
40
40
ENDCHAR
STARTCHAR 03A5
ENCODING 933
SWIDTH 720 0
DWIDTH 4 0
BBX 3 3 0 1
BITMAP
A0
40
40
ENDCHAR
STARTCHAR 03A6
ENCODING 934
SWIDTH 720 0
DWIDTH 4 0
BBX 3 4 0 0
BITMAP
40
60
E0
40
ENDCHAR
STARTCHAR 03A7
ENCODING 935
SWIDTH 720 0
DWIDTH 4 0
BBX 3 4 0 0
BITMAP
80
20
60
80
ENDCHAR
STARTCHAR 03A8
ENCODING 936
SWIDTH 720 0
DWIDTH 4 0
BBX 3 4 0 0
BITMAP
E0
E0
40
40
ENDCHAR
STARTCHAR 03A9
ENCODING 937
SWIDTH 720 0
DWIDTH 4 0
BBX 3 4 0 0
BITMAP
60
A0
A0
A0
ENDCHAR
STARTCHAR 03B1
ENCODING 945
SWIDTH 720 0
DWIDTH 4 0
BBX 4 3 0 0
BITMAP
50
A0
50
ENDCHAR
STARTCHAR 03B2
ENCODING 946
SWIDTH 720 0
DWIDTH 4 0
BBX 3 4 0 -1
BITMAP
40
E0
E0
80
ENDCHAR
STARTCHAR 03B3
ENCODING 947
SWIDTH 900 0
DWIDTH 5 0
BBX 5 4 0 -1
BITMAP
D8
50
20
20
ENDCHAR
STARTCHAR 03B4
ENCODING 948
SWIDTH 720 0
DWIDTH 4 0
BBX 3 5 0 0
BITMAP
E0
40
40
A0
40
ENDCHAR
STARTCHAR 03B5
ENCODING 949
SWIDTH 540 0
DWIDTH 3 0
BBX 3 4 0 0
BITMAP
60
80
C0
60
ENDCHAR
STARTCHAR 03B6
ENCODING 950
SWIDTH 540 0
DWIDTH 3 0
BBX 2 5 0 -1
BITMAP
C0
C0
80
40
40
ENDCHAR
STARTCHAR 03B7
ENCODING 951
SWIDTH 720 0
DWIDTH 4 0
BBX 3 4 0 -1
BITMAP
C0
E0
A0
20
ENDCHAR
STARTCHAR 03B8
ENCODING 952
SWIDTH 540 0
DWIDTH 3 0
BBX 2 2 0 1
BITMAP
C0
C0
ENDCHAR
STARTCHAR 03B9
ENCODING 953
SWIDTH 360 0
DWIDTH 2 0
BBX 1 3 0 0
BITMAP
80
80
80
ENDCHAR
STARTCHAR 03BA
ENCODING 954
SWIDTH 720 0
DWIDTH 4 0
BBX 3 3 0 0
BITMAP
E0
C0
A0
ENDCHAR
STARTCHAR 03BB
ENCODING 955
SWIDTH 720 0
DWIDTH 4 0
BBX 3 3 0 1
BITMAP
40
60
A0
ENDCHAR
STARTCHAR 03BC
ENCODING 956
SWIDTH 900 0
DWIDTH 5 0
BBX 4 4 0 -1
BITMAP
90
F0
90
80
ENDCHAR
STARTCHAR 03BD
ENCODING 957
SWIDTH 720 0
DWIDTH 4 0
BBX 4 2 0 0
BITMAP
90
60
ENDCHAR
STARTCHAR 03BE
ENCODING 958
SWIDTH 540 0
DWIDTH 3 0
BBX 2 6 0 -1
BITMAP
40
80
C0
80
40
40
ENDCHAR
STARTCHAR 03BF
ENCODING 959
SWIDTH 720 0
DWIDTH 4 0
BBX 3 3 0 0
BITMAP
40
A0
40
ENDCHAR
STARTCHAR 03C0
ENCODING 960
SWIDTH 720 0
DWIDTH 4 0
BBX 4 3 0 0
BITMAP
F0
60
60
ENDCHAR
STARTCHAR 03C1
ENCODING 961
SWIDTH 720 0
DWIDTH 4 0
BBX 3 4 0 -1
BITMAP
40
A0
C0
80
ENDCHAR
STARTCHAR 03C2
ENCODING 962
SWIDTH 540 0
DWIDTH 3 0
BBX 2 4 0 -1
BITMAP
C0
80
40
40
ENDCHAR
STARTCHAR 03C3
ENCODING 963
SWIDTH 720 0
DWIDTH 4 0
BBX 3 3 0 0
BITMAP
60
A0
40
ENDCHAR
STARTCHAR 03C4
ENCODING 964
SWIDTH 540 0
DWIDTH 3 0
BBX 3 3 0 0
BITMAP
E0
40
40
ENDCHAR
STARTCHAR 03C5
ENCODING 965
SWIDTH 540 0
DWIDTH 3 0
BBX 2 2 0 0
BITMAP
C0
C0
ENDCHAR
STARTCHAR 03C6
ENCODING 966
SWIDTH 720 0
DWIDTH 4 0
BBX 3 4 0 -1
BITMAP
E0
E0
40
40
ENDCHAR
STARTCHAR 03C7
ENCODING 967
SWIDTH 720 0
DWIDTH 4 0
BBX 3 4 0 -1
BITMAP
A0
E0
E0
A0
ENDCHAR
STARTCHAR 03C8
ENCODING 968
SWIDTH 720 0
DWIDTH 4 0
BBX 3 4 0 -1
BITMAP
E0
E0
40
40
ENDCHAR
STARTCHAR 03C9
ENCODING 969
SWIDTH 900 0
DWIDTH 5 0
BBX 4 3 0 0
BITMAP
F0
90
60
ENDCHAR
STARTCHAR 2014
ENCODING 8212
SWIDTH 720 0
DWIDTH 4 0
BBX 3 1 0 1
BITMAP
E0
ENDCHAR
STARTCHAR 2018
ENCODING 8216
SWIDTH 360 0
DWIDTH 2 0
BBX 1 1 0 4
BITMAP
80
ENDCHAR
STARTCHAR 2019
ENCODING 8217
SWIDTH 360 0
DWIDTH 2 0
BBX 1 1 0 3
BITMAP
80
ENDCHAR
STARTCHAR 201A
ENCODING 8218
SWIDTH 360 0
DWIDTH 2 0
BBX 1 1 0 0
BITMAP
80
ENDCHAR
STARTCHAR 201B
ENCODING 8219
SWIDTH 360 0
DWIDTH 2 0
BBX 1 1 0 3
BITMAP
80
ENDCHAR
STARTCHAR 201C
ENCODING 8220
SWIDTH 540 0
DWIDTH 3 0
BBX 3 2 0 3
BITMAP
20
C0
ENDCHAR
STARTCHAR 201D
ENCODING 8221
SWIDTH 540 0
DWIDTH 3 0
BBX 3 2 0 3
BITMAP
C0
20
ENDCHAR
STARTCHAR 201E
ENCODING 8222
SWIDTH 720 0
DWIDTH 4 0
BBX 3 1 0 0
BITMAP
A0
ENDCHAR
STARTCHAR 2020
ENCODING 8224
SWIDTH 540 0
DWIDTH 3 0
BBX 3 4 0 0
BITMAP
40
E0
40
40
ENDCHAR
STARTCHAR 2026
ENCODING 8230
SWIDTH 720 0
DWIDTH 4 0
BBX 2 1 0 0
BITMAP
C0
ENDCHAR
STARTCHAR 2039
ENCODING 8249
SWIDTH 540 0
DWIDTH 3 0
BBX 2 4 0 0
BITMAP
40
00
80
40
ENDCHAR
STARTCHAR 203A
ENCODING 8250
SWIDTH 540 0
DWIDTH 3 0
BBX 2 4 0 0
BITMAP
80
00
40
80
ENDCHAR
STARTCHAR 20AC
ENCODING 8364
SWIDTH 900 0
DWIDTH 5 0
BBX 4 6 0 -1
BITMAP
60
90
E0
E0
90
60
ENDCHAR
STARTCHAR 2122
ENCODING 8482
SWIDTH 1260 0
DWIDTH 7 0
BBX 7 3 0 1
BITMAP
D2
52
52
ENDCHAR
STARTCHAR FB01
ENCODING 64257
SWIDTH 900 0
DWIDTH 5 0
BBX 4 4 0 0
BITMAP
30
40
F0
50
ENDCHAR
STARTCHAR FB02
ENCODING 64258
SWIDTH 900 0
DWIDTH 5 0
BBX 4 4 0 0
BITMAP
30
50
F0
50
ENDCHAR
ENDFONT
